<svg id="Capa_1" enable-background="new 0 0 512.166 512.166" height="512" viewBox="0 0 512.166 512.166" width="512" xmlns="http://www.w3.org/2000/svg"><path d="m348.049 100.135-58.709 58.709c-19.268-11.369-39.374-17.601-58.39-17.73-.199-.001-.397-.002-.596-.002-22.275 0-42.527 8.483-58.598 24.554-7.279 7.278-13.51 15.48-18.519 24.377-5.212 9.254-14.468 15.513-24.76 16.743-34.877 4.165-62.763 18.946-93.243 49.425-26.088 26.088-38.284 62.09-34.341 101.373 3.552 35.393 20.333 71.6 46.04 99.337 31.294 33.766 75.433 54.408 118.073 55.218.911.017 1.813.026 2.718.026 34.247 0 64.714-12.388 88.244-35.918 29.049-29.048 45.105-59.464 49.087-92.985 1.222-10.292 7.307-19.418 16.275-24.414 8.858-4.934 17.036-11.074 24.308-18.252 21.307-21.032 29.052-48.449 22.4-79.288-2.739-12.698-7.951-25.666-15.252-38.279l59.079-59.079zm-94.51 234.136c-10.123 10.124-23.582 15.699-37.898 15.699s-27.776-5.575-37.899-15.699c-10.123-10.123-15.698-23.582-15.698-37.898s5.575-27.775 15.699-37.898c10.123-10.123 23.582-15.698 37.898-15.698s27.775 5.575 37.898 15.698c20.898 20.896 20.897 54.899 0 75.796zm-94.74 75.523c-2.929 2.929-6.768 4.394-10.606 4.394s-7.678-1.464-10.606-4.394l-35.368-35.368c-5.858-5.858-5.858-15.355 0-21.213 5.857-5.858 15.355-5.858 21.213 0l35.368 35.368c5.857 5.858 5.857 15.355-.001 21.213z"/><path d="m215.641 272.787c-6.043 0-12.084 2.299-16.686 6.9-4.457 4.457-6.912 10.383-6.912 16.686s2.455 12.229 6.912 16.685c4.457 4.458 10.383 6.912 16.686 6.912s12.229-2.455 16.685-6.912c9.2-9.2 9.2-24.17 0-33.371-4.6-4.6-10.643-6.9-16.685-6.9z"/><path d="m494.282 81.534 13.324-13.324c5.858-5.858 5.858-15.355 0-21.213l-42.603-42.603c-2.813-2.813-6.628-4.394-10.607-4.394-3.978 0-7.793 1.581-10.606 4.394l-13.324 13.324-12.682-12.682c-5.857-5.857-15.355-5.858-21.213 0-5.857 5.858-5.857 15.355 0 21.213l12.681 12.681-18.761 18.761-12.681-12.681c-5.857-5.857-15.355-5.858-21.213 0-5.857 5.858-5.857 15.355 0 21.213l88.895 88.894c2.929 2.929 6.768 4.394 10.606 4.394s7.678-1.464 10.606-4.394c5.858-5.858 5.858-15.355 0-21.213l-12.397-12.397 18.761-18.761 12.397 12.397c2.929 2.929 6.768 4.394 10.606 4.394s7.678-1.464 10.606-4.394c5.858-5.858 5.858-15.355 0-21.213z"/></svg>